<svg xmlns="http://www.w3.org/2000/svg" xmlns:xlink="http://www.w3.org/1999/xlink" viewBox="0 0 135 40"><defs><style>.cls-1{fill:#a6a6a6;}.cls-2{fill:#fff;}.cls-3{fill:url(#linear-gradient);}.cls-4{fill:url(#linear-gradient-2);}</style><linearGradient id="linear-gradient" x1="28.95" y1="13.02" x2="33.32" y2="13.02" gradientUnits="userSpaceOnUse"><stop offset="0" stop-color="#1767e6"/><stop offset="0.64" stop-color="#14bbf2"/></linearGradient><linearGradient id="linear-gradient-2" x1="24.69" y1="31.03" x2="36.48" y2="4.89" xlink:href="#linear-gradient"/></defs><title>Iapps-Badge-Black-</title><g id="Layer_2" data-name="Layer 2"><g id="Layer_1-2" data-name="Layer 1"><path class="cls-1" d="M130.2,40H4.73A4.74,4.74,0,0,1,0,35.27V4.73A4.73,4.73,0,0,1,4.73,0H130.2A4.8,4.8,0,0,1,135,4.73V35.27A4.81,4.81,0,0,1,130.2,40Z"/><path d="M134,35.27a3.82,3.82,0,0,1-3.83,3.83H4.73A3.83,3.83,0,0,1,.89,35.27V4.73A3.84,3.84,0,0,1,4.73.9H130.2A3.83,3.83,0,0,1,134,4.73V35.27Z"/><rect class="cls-2" x="16.93" y="8" width="24" height="24" rx="5.34" ry="5.34"/><g id="形状_1" data-name="形状 1"><path class="cls-3" d="M32.18,14a4.75,4.75,0,0,0,1.12-3.44,4.88,4.88,0,0,0-3.18,1.63A4.57,4.57,0,0,0,29,15.5,4,4,0,0,0,32.18,14Z"/></g><path class="cls-4" d="M30.73,18.19s-1.77,1.59-1.8,1.59-1.84-1.62-1.84-1.62A8.91,8.91,0,0,0,21,15.45H16.93V26.66A5.34,5.34,0,0,0,22.27,32H35.59a5.34,5.34,0,0,0,5.34-5.34V15.45h-4.1A8.88,8.88,0,0,0,30.73,18.19Z"/><path class="cls-2" d="M28.92,26.41A6.38,6.38,0,0,1,22.53,20a.94.94,0,0,1,1.88,0,4.51,4.51,0,1,0,9,0,.94.94,0,0,1,1.87,0,6.38,6.38,0,0,1-6.38,6.39Z"/><path class="cls-2" d="M80.7,23H76.07a1.37,1.37,0,0,1-1.38-1.37V19.93H72v3.63a1.38,1.38,0,1,1-2.75,0V22.49h0V19.93H66.6v3.6a1.38,1.38,0,0,1-2.76,0v-.79h0V19.93H61.19v5.18a4.26,4.26,0,0,1-4.68,4.23,4.38,4.38,0,0,1-3.83-4.42V22.6A2.64,2.64,0,0,0,50,20h0v4.91A7.08,7.08,0,0,0,56,32a6.93,6.93,0,0,0,7.49-4.79,3.86,3.86,0,0,0,1.7.39,4,4,0,0,0,2.69-1.05,4,4,0,0,0,6.39-1.29,3.89,3.89,0,0,0,1.77.43l7.28,0A2.65,2.65,0,0,0,80.7,23Z"/><path class="cls-2" d="M110.14,32a2.65,2.65,0,0,0,2.65-2.64V24.4h-2.65Z"/><path class="cls-2" d="M85.63,31.94a2.65,2.65,0,0,0,2.65-2.64V19.94H85.63Z"/><path class="cls-2" d="M103.49,22.56h2a2.65,2.65,0,0,0,2.66-2.63h-4.69A3.49,3.49,0,0,0,101,21a3.63,3.63,0,0,0-1.06,2.52A3.46,3.46,0,0,0,101,26a3.54,3.54,0,0,0,2.51,1.05h1.24a4.78,4.78,0,0,1-4,2.21,4.7,4.7,0,0,1-4.76-4.62V19.94H93.27v4.75a7.41,7.41,0,0,0,14.79.53c0-.2,0-.59,0-.72l-4.59,0a.94.94,0,0,1-.66-.27,1.08,1.08,0,0,1,0-1.43A.83.83,0,0,1,103.49,22.56Z"/><path class="cls-2" d="M81.13,27.65H76.84A2.15,2.15,0,0,0,79,29.8h2.17V32a2.15,2.15,0,0,0,2.15-2.12h0V27.65H81.13Z"/><path class="cls-2" d="M112.53,19.94h0a2.63,2.63,0,0,0-2.63,2.63h5.29A2.63,2.63,0,0,0,117.82,20h-5.29Z"/><path class="cls-2" d="M51.92,13.79a2.38,2.38,0,0,1-.09.7,1.13,1.13,0,0,1-.28.49,1.08,1.08,0,0,1-.46.28,2.25,2.25,0,0,1-.67.1H49.9v.7h.52a2.75,2.75,0,0,0,.95-.15,2,2,0,0,0,.7-.45,1.84,1.84,0,0,0,.41-.71,2.85,2.85,0,0,0,.14-1V11.45h-.7Z"/><rect class="cls-2" x="51.79" y="9.38" width="0.91" height="0.92" transform="translate(8.18 39.57) rotate(-44.68)"/><rect class="cls-2" x="53.74" y="8.64" width="0.71" height="5.34"/><rect class="cls-2" x="76.74" y="8.81" width="0.91" height="0.92" transform="translate(16.02 57.25) rotate(-44.96)"/><rect class="cls-2" x="88.82" y="8.93" width="0.91" height="0.92" transform="translate(19.53 65.9) rotate(-45.02)"/><path class="cls-2" d="M90.07,12,90,11.62c0-.12-.05-.23-.06-.32s0-.18,0-.24a.9.9,0,0,1,0-.12l-.68.2a.53.53,0,0,1,0,.16c0,.07,0,.15,0,.24a2.18,2.18,0,0,1,0,.29c0,.1,0,.2,0,.29s0,.19,0,.27a1.83,1.83,0,0,1,0,.21.75.75,0,0,1-.08.37.63.63,0,0,1-.18.21.6.6,0,0,1-.21.08l-.15,0h-1a.89.89,0,0,1-.56-.16.68.68,0,0,1-.19-.5V11.46h-.71v1.16a.75.75,0,0,1-.06.31.6.6,0,0,1-.14.2.49.49,0,0,1-.2.11.52.52,0,0,1-.21,0,.78.78,0,0,1-.56-.17.69.69,0,0,1-.18-.53V11.46h-.7V12.6a.7.7,0,0,1-.07.35.58.58,0,0,1-.16.21.48.48,0,0,1-.19.09l-.17,0a.86.86,0,0,1-.55-.17.73.73,0,0,1-.17-.53V11.46h-.71V12.6a1.14,1.14,0,0,1,0,.28.42.42,0,0,1-.11.22.47.47,0,0,1-.23.13,1.37,1.37,0,0,1-.39,0h-1a.67.67,0,0,1-.19,0,.82.82,0,0,1-.2-.12.44.44,0,0,1-.13-.21l.44-.28.19-.12-.1-.63-1.32-.49-.64-.24L78,11l-.31-.1-.19-.06h-.17c-.61,0-1,.37-1.21,1.11l.69.18a1,1,0,0,1,.12-.33.4.4,0,0,1,.13-.17.28.28,0,0,1,.13-.07h.14a1.27,1.27,0,0,1,.28.08l.52.17.66.25.72.28-.61.33c-.23.11-.48.22-.74.32a7.27,7.27,0,0,1-.83.25,4.11,4.11,0,0,1-.85.1h-1l-.32,0a1.21,1.21,0,0,1-.35-.12,1.26,1.26,0,0,1-.32-.26,1.35,1.35,0,0,1-.22-.45,2.18,2.18,0,0,1-.06-.22c0-.09,0-.18-.07-.28s-.05-.21-.07-.31,0-.2-.08-.29,0-.18,0-.25l0-.15c0-.15-.07-.32-.12-.52s-.1-.41-.16-.66L73,9.88l.07.41a3.2,3.2,0,0,0-1.45.8,1.47,1.47,0,0,0-.39.6,1.88,1.88,0,0,0-.1.53,1.69,1.69,0,0,0,.24.84,1.16,1.16,0,0,0,.44.38,1.34,1.34,0,0,0,.36.14,1.47,1.47,0,0,0,.36,0,1.69,1.69,0,0,0,.33,0,1,1,0,0,0,.28-.08,2,2,0,0,0,.38-.21,1.28,1.28,0,0,0,.28-.29,1.71,1.71,0,0,0,.69.72,2.1,2.1,0,0,0,1,.25h1.05a4.74,4.74,0,0,0,.75-.06,5.4,5.4,0,0,0,.72-.17,7,7,0,0,0,.69-.25l.62-.28a1.12,1.12,0,0,0,.33.45,1.32,1.32,0,0,0,.42.23,1.46,1.46,0,0,0,.52.08h.92a1.57,1.57,0,0,0,1.07-.33s0,0,0-.06a1.38,1.38,0,0,0,1,.39h0a1.43,1.43,0,0,0,.49-.1,1.28,1.28,0,0,0,.43-.3,1.43,1.43,0,0,0,1.09.4,1.42,1.42,0,0,0,.5-.08,1.22,1.22,0,0,0,.41-.27l.06-.06h0a1.17,1.17,0,0,0,.47.31,1.74,1.74,0,0,0,.63.1h1a1.29,1.29,0,0,0,.47-.08,1.24,1.24,0,0,0,.43-.25,1.38,1.38,0,0,0,.3-.43,1.46,1.46,0,0,0,.12-.62,1.57,1.57,0,0,0,0-.29C90.1,12.2,90.08,12.09,90.07,12Zm-16.67.18a.87.87,0,0,1-.55.71l-.16,0H72.5a.68.68,0,0,1-.2,0,.45.45,0,0,1-.18-.07.65.65,0,0,1-.2-.17.47.47,0,0,1-.11-.26.77.77,0,0,1,0-.15.93.93,0,0,1,0-.29,1.1,1.1,0,0,1,.27-.39,2,2,0,0,1,.47-.33,3.52,3.52,0,0,1,.65-.26l.15.64s0,.09,0,.16a1,1,0,0,1,0,.15A1.85,1.85,0,0,1,73.4,12.15Z"/><polygon class="cls-2" points="98.37 10.52 97.76 9.91 97.18 10.52 97.77 11.12 98.37 10.52"/><polygon class="cls-2" points="96.94 10.51 96.33 9.9 95.75 10.51 96.34 11.11 96.94 10.51"/><rect class="cls-2" x="103.11" y="7.96" width="0.91" height="0.92" transform="translate(24.41 75.73) rotate(-45.02)"/><path class="cls-2" d="M104.56,10.45a1.25,1.25,0,0,0-.46-.4A1.42,1.42,0,0,0,103,10a1.32,1.32,0,0,0-.44.3,1.31,1.31,0,0,0-.3.46,1.62,1.62,0,0,0-.11.58,1.58,1.58,0,0,0,.19.74,1,1,0,0,0,.19.22,1.37,1.37,0,0,0,.21.15l.25.11.26.06.25,0h.79a.89.89,0,0,1-.06.2.59.59,0,0,1-.19.2,1.4,1.4,0,0,1-.4.15,3.1,3.1,0,0,1-.68.06h-1.58l-.16,0a.68.68,0,0,1-.23-.07.6.6,0,0,1-.21-.18.49.49,0,0,1-.1-.34V11.39h-.7v1.3a.75.75,0,0,1,0,.2.34.34,0,0,1-.11.19.61.61,0,0,1-.24.14,1.33,1.33,0,0,1-.44.06H94.9l-.16,0a.51.51,0,0,1-.22-.09.58.58,0,0,1-.18-.22.69.69,0,0,1-.08-.38,1.78,1.78,0,0,1,0-.3l.06-.33c0-.11.06-.21.08-.31s0-.17.07-.22l-.68-.21a1.37,1.37,0,0,1,0,.18,3.46,3.46,0,0,0-.09.35q0,.19-.09.42a3.29,3.29,0,0,0,0,.42,2,2,0,0,0,0,.37,2.11,2.11,0,0,0,.1.3,2.32,2.32,0,0,0,.14.23,1.17,1.17,0,0,0,.15.16,1.14,1.14,0,0,0,.42.26,1.35,1.35,0,0,0,.5.09h4.25a1.55,1.55,0,0,0,1.15-.4l0,.05,0,0a1.27,1.27,0,0,0,.43.23,1.62,1.62,0,0,0,.44.07h1.66a2.7,2.7,0,0,0,1.44-.31,1.19,1.19,0,0,0,.45-.47,1.39,1.39,0,0,0,.14-.66V12a4.19,4.19,0,0,0-.09-.91A2,2,0,0,0,104.56,10.45ZM103.68,12a2.05,2.05,0,0,1-.37,0,1.07,1.07,0,0,1-.27-.09l-.08-.06-.09-.09a.4.4,0,0,1-.07-.13,1.25,1.25,0,0,1,0-.21.69.69,0,0,1,.23-.56.76.76,0,0,1,.23-.13.82.82,0,0,1,.26,0,.58.58,0,0,1,.49.24,1.45,1.45,0,0,1,.19.45,3,3,0,0,1,.08.65Z"/><polygon class="cls-2" points="107.75 15.42 108.33 16.02 108.94 15.42 108.34 14.82 107.75 15.42"/><polygon class="cls-2" points="109.18 15.41 109.76 16.02 110.37 15.41 109.77 14.81 109.18 15.41"/><path class="cls-2" d="M109.9,13.65a1.38,1.38,0,0,0,.3-.43,1.46,1.46,0,0,0,.12-.62c0-.08,0-.18,0-.29s0-.22,0-.34l-.06-.35c0-.12,0-.23-.06-.32s0-.18,0-.24a.9.9,0,0,1,0-.12l-.68.2a.53.53,0,0,1,0,.16c0,.07,0,.15,0,.24a2.18,2.18,0,0,1,0,.29c0,.1,0,.2,0,.29s0,.19,0,.27a1.83,1.83,0,0,1,0,.21.75.75,0,0,1-.08.37.63.63,0,0,1-.18.21.6.6,0,0,1-.21.08l-.15,0h-1.4a3.06,3.06,0,0,1-.53,0,.38.38,0,0,1-.26-.15.52.52,0,0,1-.11-.31,4,4,0,0,1,0-.53V8.64H106v3.6c0,.2,0,.38,0,.53a1.91,1.91,0,0,0,.08.44,1,1,0,0,0,.16.33.85.85,0,0,0,.29.24,1.28,1.28,0,0,0,.43.15,3.37,3.37,0,0,0,.49.05H109a1.29,1.29,0,0,0,.47-.08A1.24,1.24,0,0,0,109.9,13.65Z"/><path class="cls-2" d="M112.91,13.79a2.38,2.38,0,0,1-.09.7,1.13,1.13,0,0,1-.28.49,1.08,1.08,0,0,1-.46.28,2.25,2.25,0,0,1-.67.1h-.52v.7h.52a2.75,2.75,0,0,0,1-.15,2,2,0,0,0,.7-.45,1.84,1.84,0,0,0,.41-.71,2.85,2.85,0,0,0,.14-1V11.45h-.7Z"/><path class="cls-2" d="M117.73,12.72a1.66,1.66,0,0,0-.12-.31,1.46,1.46,0,0,0-.17-.3l-.41-.63-.32-.47-.23-.35-.16-.25-.13-.19-.1-.15-.6.39,1.36,2a1.83,1.83,0,0,1,.16.3.74.74,0,0,1,0,.18.22.22,0,0,1,0,.08.39.39,0,0,1-.18.14,1.79,1.79,0,0,1-.36.1l-.3,0H116l-.37,0-.4-.07a1.07,1.07,0,0,1-.32-.12l-.32-.18-.35.62.31.18.31.14a2.11,2.11,0,0,0,.36.09,2.32,2.32,0,0,0,.38,0,2.48,2.48,0,0,0,.38,0h.31l.27,0a1.28,1.28,0,0,0,1.09-.65.83.83,0,0,0,.08-.24V13A1.33,1.33,0,0,0,117.73,12.72Z"/><path class="cls-2" d="M58.5,7.55a.45.45,0,0,0-.33.12.47.47,0,0,0-.11.31.4.4,0,0,0,.44.42.42.42,0,0,0,.33-.12A.41.41,0,0,0,59,8a.43.43,0,0,0-.12-.31A.42.42,0,0,0,58.5,7.55Z"/><rect class="cls-2" x="58.13" y="9.13" width="0.74" height="4.35"/><path class="cls-2" d="M61.84,9.05a1.86,1.86,0,0,0-1,.28,1.75,1.75,0,0,0-.7.79,2.53,2.53,0,0,0-.26,1.15v.05A2.38,2.38,0,0,0,60.41,13a1.85,1.85,0,0,0,1.44.61,1.93,1.93,0,0,0,1-.28,1.87,1.87,0,0,0,.69-.78,2.51,2.51,0,0,0,.25-1.14V11.3a2.38,2.38,0,0,0-.55-1.63A1.85,1.85,0,0,0,61.84,9.05Zm.91,3.46a1.13,1.13,0,0,1-1.8,0,1.82,1.82,0,0,1-.34-1.16A2.06,2.06,0,0,1,61,10.1a1.12,1.12,0,0,1,1.79,0,1.82,1.82,0,0,1,.34,1.16A2,2,0,0,1,62.75,12.51Z"/><path class="cls-2" d="M67.36,11.27a3.63,3.63,0,0,0-.9-.3,2.46,2.46,0,0,1-.77-.26.45.45,0,0,1-.22-.41.56.56,0,0,1,.23-.46,1,1,0,0,1,.64-.18,1,1,0,0,1,.65.22.7.7,0,0,1,.26.53H68a1.21,1.21,0,0,0-.46-1,1.85,1.85,0,0,0-1.2-.38,1.75,1.75,0,0,0-1.16.37,1.14,1.14,0,0,0-.45.91.92.92,0,0,0,.16.55,1.18,1.18,0,0,0,.49.4,3.39,3.39,0,0,0,.9.29,2.22,2.22,0,0,1,.79.29.55.55,0,0,1,.22.47.53.53,0,0,1-.25.46,1.24,1.24,0,0,1-.68.17,1.21,1.21,0,0,1-.74-.22.83.83,0,0,1-.3-.6h-.74a1.19,1.19,0,0,0,.23.72,1.41,1.41,0,0,0,.63.52,2.19,2.19,0,0,0,.92.18,1.91,1.91,0,0,0,1.21-.35,1.1,1.1,0,0,0,.47-.93,1.06,1.06,0,0,0-.17-.6A1.27,1.27,0,0,0,67.36,11.27Z"/></g></g></svg>